<svg xmlns="http://www.w3.org/2000/svg" x="0px" y="0px"
width="24" height="24"
viewBox="0 0 172 172"
style=" fill:#000000;"><g fill="none" fill-rule="nonzero" stroke="none" stroke-width="1" stroke-linecap="butt" stroke-linejoin="miter" stroke-miterlimit="10" stroke-dasharray="" stroke-dashoffset="0" font-family="none" font-weight="none" font-size="none" text-anchor="none" style="mix-blend-mode: normal"><path d="M0,172v-172h172v172z" fill="none"></path><g fill="#ffffff"><path d="M43,14.33333c-7.91917,0 -14.33333,6.41417 -14.33333,14.33333v114.66667c0,7.91917 6.41417,14.33333 14.33333,14.33333h86c7.91917,0 14.33333,-6.41417 14.33333,-14.33333v-114.66667c0,-7.91917 -6.41417,-14.33333 -14.33333,-14.33333h-28.66667h-43zM43,28.66667h14.33333v57.33333l21.5,-10.75l21.5,10.75v-57.33333h28.66667v114.66667h-86zM71.66667,28.66667h14.33333v34.13965l-0.75586,-0.37793l-6.41081,-3.2054l-6.41081,3.2054l-0.75586,0.37793z"></path></g></g></svg>